<svg width="100" height="100" viewBox="0 0 100 100" fill="none" xmlns="http://www.w3.org/2000/svg">
<path fill-rule="evenodd" clip-rule="evenodd" d="M66.6666 37.5002C66.6666 41.9204 64.9107 46.1597 61.7851 49.2853C58.6595 52.4109 54.4203 54.1668 50 54.1668C45.5797 54.1668 41.3405 52.4109 38.2149 49.2853C35.0893 46.1597 33.3333 41.9204 33.3333 37.5002C33.3333 33.0799 35.0893 28.8407 38.2149 25.715C41.3405 22.5894 45.5797 20.8335 50 20.8335C54.4203 20.8335 58.6595 22.5894 61.7851 25.715C64.9107 28.8407 66.6666 33.0799 66.6666 37.5002ZM58.3333 37.5002C58.3333 39.7103 57.4553 41.8299 55.8925 43.3927C54.3297 44.9555 52.2101 45.8335 50 45.8335C47.7898 45.8335 45.6702 44.9555 44.1074 43.3927C42.5446 41.8299 41.6666 39.7103 41.6666 37.5002C41.6666 35.29 42.5446 33.1704 44.1074 31.6076C45.6702 30.0448 47.7898 29.1668 50 29.1668C52.2101 29.1668 54.3297 30.0448 55.8925 31.6076C57.4553 33.1704 58.3333 35.29 58.3333 37.5002Z" fill="black"/>
<path fill-rule="evenodd" clip-rule="evenodd" d="M50 4.16675C24.6875 4.16675 4.16666 24.6876 4.16666 50.0001C4.16666 75.3126 24.6875 95.8334 50 95.8334C75.3125 95.8334 95.8333 75.3126 95.8333 50.0001C95.8333 24.6876 75.3125 4.16675 50 4.16675ZM12.5 50.0001C12.5 58.7084 15.4708 66.7251 20.45 73.0917C23.9468 68.4997 28.4579 64.7782 33.631 62.218C38.804 59.6579 44.4989 58.3284 50.2708 58.3334C55.968 58.328 61.5913 59.6231 66.7122 62.12C71.8331 64.6169 76.3165 68.2498 79.8208 72.7417C83.431 68.0068 85.8618 62.4801 86.912 56.6192C87.9623 50.7583 87.6018 44.7315 85.8604 39.0375C84.119 33.3436 81.0467 28.1461 76.8979 23.8752C72.749 19.6044 67.6427 16.3828 62.0016 14.4772C56.3605 12.5716 50.3466 12.0366 44.4577 12.9166C38.5688 13.7966 32.9741 16.0663 28.1365 19.5378C23.2989 23.0093 19.3575 27.5829 16.6384 32.8801C13.9194 38.1772 12.5007 44.0458 12.5 50.0001ZM50 87.5001C41.3914 87.513 33.0428 84.5515 26.3667 79.1168C29.0539 75.2698 32.6306 72.1289 36.7925 69.9613C40.9544 67.7936 45.5783 66.6634 50.2708 66.6667C54.9048 66.663 59.4729 67.765 63.5955 69.881C67.7182 71.9971 71.2765 75.0661 73.975 78.8334C67.2471 84.4447 58.7608 87.5124 50 87.5001Z" fill="black"/>
</svg>
