<svg width="32" height="32" viewBox="0 0 32 32" fill="none" xmlns="http://www.w3.org/2000/svg">
<path d="M30.6577 25.0469C29.6869 24.2535 28.837 23.3439 28.1309 22.3427C27.36 20.9607 26.8979 19.4514 26.7718 17.9034V13.3442C26.7785 10.9128 25.8165 8.56291 24.0665 6.73597C22.3166 4.90903 19.8991 3.73081 17.2685 3.42268V2.23211C17.2685 1.90533 17.1269 1.59194 16.8748 1.36088C16.6228 1.12981 16.2809 1 15.9245 1C15.5681 1 15.2262 1.12981 14.9742 1.36088C14.7221 1.59194 14.5805 1.90533 14.5805 2.23211V3.44114C11.9734 3.77148 9.58521 4.95683 7.85825 6.77762C6.13129 8.59842 5.18261 10.9313 5.18792 13.3442V17.9034C5.06183 19.4514 4.59978 20.9607 3.82886 22.3427C3.13512 23.3416 2.29885 24.2511 1.34228 25.0469C1.2349 25.1334 1.14883 25.2398 1.08982 25.3592C1.0308 25.4785 1.00018 25.608 1 25.7391V26.9942C1 27.239 1.10606 27.4738 1.29486 27.6469C1.48365 27.8199 1.73972 27.9172 2.00671 27.9172H29.9933C30.2603 27.9172 30.5163 27.8199 30.7051 27.6469C30.8939 27.4738 31 27.239 31 26.9942V25.7391C30.9998 25.608 30.9692 25.4785 30.9102 25.3592C30.8512 25.2398 30.7651 25.1334 30.6577 25.0469ZM3.09396 26.0713C4.03061 25.2418 4.8553 24.3122 5.55034 23.3025C6.52142 21.6334 7.08802 19.7917 7.21141 17.9034V13.3442C7.17148 12.2625 7.36939 11.1846 7.79333 10.1745C8.21728 9.16445 8.8586 8.24293 9.67911 7.46483C10.4996 6.68673 11.4825 6.06795 12.5693 5.64535C13.6561 5.22274 14.8245 5.00496 16.005 5.00496C17.1855 5.00496 18.354 5.22274 19.4408 5.64535C20.5275 6.06795 21.5105 6.68673 22.331 7.46483C23.1515 8.24293 23.7928 9.16445 24.2167 10.1745C24.6407 11.1846 24.8386 12.2625 24.7987 13.3442V17.9034C24.922 19.7917 25.4886 21.6334 26.4597 23.3025C27.1548 24.3122 27.9795 25.2418 28.9161 26.0713H3.09396Z" fill="black" stroke="black"/>
<path d="M16.05 30.9998C16.6842 30.9864 17.2928 30.7678 17.7681 30.3827C18.2434 29.9976 18.5549 29.4708 18.6473 28.8955H13.3521C13.4472 29.4864 13.7732 30.0256 14.2695 30.4127C14.7658 30.7998 15.3985 31.0084 16.05 30.9998V30.9998Z" fill="black" stroke="black"/>
</svg>
