<svg width="35" height="35" viewBox="0 0 35 35" fill="none" xmlns="http://www.w3.org/2000/svg">
<path d="M16.5928 20.8312H27.7082C28.0949 20.8312 28.4659 20.6798 28.7394 20.4104C29.0129 20.141 29.1665 19.7755 29.1665 19.3945V7.90147C29.1665 7.52045 29.0129 7.15503 28.7394 6.88561C28.4659 6.61619 28.0949 6.46483 27.7082 6.46483H7.2915C6.90473 6.46483 6.5338 6.61619 6.26031 6.88561C5.98682 7.15503 5.83317 7.52045 5.83317 7.90147V19.3945C5.83317 19.7755 5.98682 20.141 6.26031 20.4104C6.5338 20.6798 6.90473 20.8312 7.2915 20.8312C7.67828 20.8312 8.04921 20.9825 8.3227 21.2519C8.59619 21.5214 8.74984 21.8868 8.74984 22.2678V26.5964L16.5928 20.8312V20.8312ZM7.2915 3.59157H27.7082C28.8685 3.59157 29.9813 4.04565 30.8018 4.85391C31.6222 5.66217 32.0832 6.75841 32.0832 7.90147V19.3945C32.0832 20.5376 31.6222 21.6338 30.8018 22.4421C29.9813 23.2503 28.8685 23.7044 27.7082 23.7044H17.5611L8.16359 30.6118C7.94672 30.7712 7.6891 30.868 7.41957 30.8914C7.15003 30.9148 6.8792 30.8639 6.63736 30.7443C6.39553 30.6247 6.19223 30.4412 6.0502 30.2144C5.90818 29.9875 5.83303 29.7261 5.83317 29.4596V23.7044C5.05962 23.7044 4.31776 23.4017 3.77078 22.8629C3.22379 22.324 2.9165 21.5932 2.9165 20.8312V7.90147C2.9165 6.75841 3.37744 5.66217 4.19791 4.85391C5.01838 4.04565 6.13118 3.59157 7.2915 3.59157V3.59157Z" fill="black"/>
</svg>
