<svg width="32" height="32" viewBox="0 0 32 32" fill="none" xmlns="http://www.w3.org/2000/svg">
<path d="M16.0003 10.225C15.2106 10.225 14.4286 10.374 13.6988 10.6637C12.969 10.9534 12.3054 11.3783 11.7462 11.9142C11.1869 12.4501 10.743 13.0867 10.44 13.7879C10.1369 14.489 9.98086 15.2407 9.98086 16C9.98086 16.7592 10.1369 17.5109 10.44 18.2121C10.743 18.9132 11.1869 19.5498 11.7462 20.0857C12.3054 20.6216 12.969 21.0465 13.6988 21.3362C14.4286 21.6259 15.2106 21.7749 16.0003 21.7749C17.5947 21.7749 19.125 21.168 20.2543 20.0857C21.3838 19.0032 22.0196 17.5337 22.0196 16C22.0196 14.4662 21.3838 12.9967 20.2543 11.9142C19.125 10.8319 17.5947 10.225 16.0003 10.225ZM12.2373 16C12.2373 15.5281 12.3343 15.0607 12.5229 14.6244C12.7115 14.1881 12.988 13.7912 13.3372 13.4566C13.6863 13.122 14.1012 12.8562 14.5582 12.6748C15.0152 12.4934 15.5052 12.4 16.0003 12.4C16.4953 12.4 16.9853 12.4934 17.4423 12.6748C17.8993 12.8562 18.3142 13.122 18.6633 13.4566C19.0125 13.7912 19.2891 14.1881 19.4776 14.6244C19.6662 15.0607 19.7632 15.5281 19.7632 16C19.7632 16.9526 19.3684 17.8676 18.6633 18.5433C17.9581 19.2192 17.0003 19.5999 16.0003 19.5999C15.0003 19.5999 14.0424 19.2192 13.3372 18.5433C12.6322 17.8676 12.2373 16.9526 12.2373 16Z" fill="black" stroke="black" stroke-width="0.3"/>
<mask id="path-2-outside-1" maskUnits="userSpaceOnUse" x="0" y="0" width="32" height="32" fill="black">
<rect fill="white" width="32" height="32"/>
<path d="M26.0563 26.4937L23.8025 25.5449C23.4817 25.4114 23.1328 25.3515 22.7836 25.3702C22.4343 25.3889 22.0945 25.4855 21.7912 25.6524C21.1821 25.9899 20.7934 26.5862 20.7165 27.2574L20.4452 29.6074C20.4179 29.8436 20.3151 30.0659 20.151 30.244C19.9869 30.4221 19.7694 30.5472 19.5283 30.6024C17.2078 31.1325 14.7898 31.1325 12.4693 30.6024C12.2284 30.547 12.0112 30.4217 11.8474 30.2437C11.6835 30.0656 11.5809 29.8434 11.5537 29.6074L11.2824 27.2612C11.2434 26.931 11.1243 26.6141 10.9345 26.3361C10.7446 26.058 10.4895 25.8264 10.1894 25.6599C9.88962 25.4938 9.55331 25.3975 9.20757 25.3788C8.86183 25.3602 8.51636 25.4196 8.19901 25.5524L5.94516 26.5012C5.71732 26.5971 5.464 26.6228 5.22027 26.5746C4.97653 26.5265 4.75445 26.4069 4.58477 26.2324C2.96255 24.5664 1.7554 22.5698 1.054 20.3924C0.980248 20.1636 0.982557 19.9184 1.06061 19.6909C1.13866 19.4634 1.28859 19.2647 1.48964 19.1225L3.48132 17.7125C3.76171 17.515 3.98969 17.2572 4.14682 16.9597C4.30395 16.6622 4.38582 16.3334 4.38582 16C4.38582 15.6665 4.30395 15.3378 4.14682 15.0403C3.98969 14.7428 3.76171 14.4849 3.48132 14.2875L1.48964 12.8812C1.28833 12.7389 1.13823 12.54 1.06017 12.3122C0.982107 12.0844 0.979951 11.839 1.054 11.61C1.75685 9.43457 2.96488 7.44006 4.58738 5.77624C4.75721 5.60199 4.97937 5.48265 5.22309 5.43472C5.46682 5.3868 5.72006 5.41266 5.94777 5.50874L8.19119 6.45499C8.51039 6.58665 8.85733 6.64487 9.20423 6.625C9.55113 6.60513 9.88835 6.50771 10.1889 6.34054C10.4895 6.17337 10.7451 5.94109 10.9352 5.66229C11.1253 5.3835 11.2446 5.06592 11.2837 4.73499L11.5576 2.3875C11.5852 2.14869 11.6899 1.92409 11.8571 1.74504C12.0242 1.56599 12.2456 1.44144 12.4902 1.38875C13.6393 1.14375 14.8119 1.01375 16.017 1C17.1935 1.0125 18.3648 1.14375 19.5126 1.38875C19.7575 1.44134 19.9791 1.56603 20.1463 1.74535C20.3135 1.92468 20.418 2.14965 20.4452 2.38875L20.7178 4.73624C20.7766 5.25684 21.0337 5.73834 21.44 6.08848C21.8463 6.43862 22.3731 6.63277 22.9195 6.63374C23.2234 6.63374 23.5247 6.57249 23.8064 6.45374L26.0498 5.50749C26.2775 5.41141 26.5308 5.38555 26.7745 5.43347C27.0182 5.4814 27.2404 5.60074 27.4102 5.77499C29.0323 7.43888 30.2399 9.4334 30.9423 11.6087C31.0162 11.8374 31.0141 12.0825 30.9362 12.31C30.8584 12.5376 30.7088 12.7363 30.5079 12.8787L28.5189 14.2875C27.9515 14.6875 27.6085 15.3237 27.6085 16C27.6085 16.675 27.9515 17.3112 28.5202 17.7125L30.5105 19.12C30.9227 19.4125 31.0975 19.9225 30.9462 20.3912C30.2439 22.5663 29.0368 24.5607 27.4154 26.2249C27.2457 26.3994 27.0237 26.519 26.7799 26.5671C26.5362 26.6153 26.2829 26.5896 26.055 26.4937H26.0563ZM18.9517 26.2462C19.263 25.3121 19.9254 24.5222 20.8104 24.0299C21.3797 23.7156 22.018 23.5336 22.674 23.4986C23.3301 23.4637 23.9855 23.5767 24.5877 23.8287L26.3407 24.5662C27.4667 23.3167 28.3382 21.876 28.9102 20.3187L27.3593 19.2225V19.2212C26.8313 18.8497 26.4018 18.3645 26.1052 17.8048C25.8087 17.2451 25.6534 16.6265 25.652 15.9987C25.652 14.715 26.3002 13.5237 27.3567 12.7787L27.3593 12.7775L28.9075 11.6812C28.3352 10.1242 27.4632 8.68388 26.3368 7.43498L24.5981 8.16748L24.5955 8.16873C24.0659 8.39373 23.496 8.50873 22.9182 8.50873C21.8906 8.50725 20.8997 8.1428 20.135 7.48509C19.3703 6.82738 18.8854 5.92258 18.7731 4.94374V4.94124L18.5605 3.11624C17.7214 2.96648 16.8705 2.88577 16.017 2.875C15.1379 2.88625 14.2823 2.9675 13.441 3.11624L13.2284 4.94249C13.1553 5.56569 12.9307 6.16376 12.5725 6.68863C12.2144 7.21349 11.7327 7.6505 11.1663 7.96453C10.5999 8.27857 9.96445 8.46086 9.31114 8.49676C8.65784 8.53266 8.00485 8.42116 7.40469 8.17123L5.66213 7.43623C4.53563 8.6851 3.66361 10.1254 3.09133 11.6825L4.64346 12.7787C5.17034 13.1506 5.59865 13.6359 5.89383 14.1955C6.18901 14.7552 6.34281 15.3735 6.34281 16.0006C6.34281 16.6277 6.18901 17.246 5.89383 17.8056C5.59865 18.3653 5.17034 18.8506 4.64346 19.2225L3.09133 20.3199C3.66253 21.8795 4.53412 23.3224 5.66082 24.5737L7.41512 23.8362C8.01339 23.5852 8.66484 23.4726 9.3169 23.5073C9.96897 23.542 10.6034 23.7232 11.1689 24.0362C11.7342 24.3492 12.2151 24.7849 12.5727 25.3083C12.9304 25.8317 13.155 26.4282 13.2284 27.0499V27.0562L13.4397 28.8862C15.1314 29.2049 16.8701 29.2049 18.5618 28.8862L18.7731 27.0524C18.8044 26.7774 18.8644 26.5062 18.9531 26.2462H18.9517Z"/>
</mask>
<path d="M26.0563 26.4937L23.8025 25.5449C23.4817 25.4114 23.1328 25.3515 22.7836 25.3702C22.4343 25.3889 22.0945 25.4855 21.7912 25.6524C21.1821 25.9899 20.7934 26.5862 20.7165 27.2574L20.4452 29.6074C20.4179 29.8436 20.3151 30.0659 20.151 30.244C19.9869 30.4221 19.7694 30.5472 19.5283 30.6024C17.2078 31.1325 14.7898 31.1325 12.4693 30.6024C12.2284 30.547 12.0112 30.4217 11.8474 30.2437C11.6835 30.0656 11.5809 29.8434 11.5537 29.6074L11.2824 27.2612C11.2434 26.931 11.1243 26.6141 10.9345 26.3361C10.7446 26.058 10.4895 25.8264 10.1894 25.6599C9.88962 25.4938 9.55331 25.3975 9.20757 25.3788C8.86183 25.3602 8.51636 25.4196 8.19901 25.5524L5.94516 26.5012C5.71732 26.5971 5.464 26.6228 5.22027 26.5746C4.97653 26.5265 4.75445 26.4069 4.58477 26.2324C2.96255 24.5664 1.7554 22.5698 1.054 20.3924C0.980248 20.1636 0.982557 19.9184 1.06061 19.6909C1.13866 19.4634 1.28859 19.2647 1.48964 19.1225L3.48132 17.7125C3.76171 17.515 3.98969 17.2572 4.14682 16.9597C4.30395 16.6622 4.38582 16.3334 4.38582 16C4.38582 15.6665 4.30395 15.3378 4.14682 15.0403C3.98969 14.7428 3.76171 14.4849 3.48132 14.2875L1.48964 12.8812C1.28833 12.7389 1.13823 12.54 1.06017 12.3122C0.982107 12.0844 0.979951 11.839 1.054 11.61C1.75685 9.43457 2.96488 7.44006 4.58738 5.77624C4.75721 5.60199 4.97937 5.48265 5.22309 5.43472C5.46682 5.3868 5.72006 5.41266 5.94777 5.50874L8.19119 6.45499C8.51039 6.58665 8.85733 6.64487 9.20423 6.625C9.55113 6.60513 9.88835 6.50771 10.1889 6.34054C10.4895 6.17337 10.7451 5.94109 10.9352 5.66229C11.1253 5.3835 11.2446 5.06592 11.2837 4.73499L11.5576 2.3875C11.5852 2.14869 11.6899 1.92409 11.8571 1.74504C12.0242 1.56599 12.2456 1.44144 12.4902 1.38875C13.6393 1.14375 14.8119 1.01375 16.017 1C17.1935 1.0125 18.3648 1.14375 19.5126 1.38875C19.7575 1.44134 19.9791 1.56603 20.1463 1.74535C20.3135 1.92468 20.418 2.14965 20.4452 2.38875L20.7178 4.73624C20.7766 5.25684 21.0337 5.73834 21.44 6.08848C21.8463 6.43862 22.3731 6.63277 22.9195 6.63374C23.2234 6.63374 23.5247 6.57249 23.8064 6.45374L26.0498 5.50749C26.2775 5.41141 26.5308 5.38555 26.7745 5.43347C27.0182 5.4814 27.2404 5.60074 27.4102 5.77499C29.0323 7.43888 30.2399 9.4334 30.9423 11.6087C31.0162 11.8374 31.0141 12.0825 30.9362 12.31C30.8584 12.5376 30.7088 12.7363 30.5079 12.8787L28.5189 14.2875C27.9515 14.6875 27.6085 15.3237 27.6085 16C27.6085 16.675 27.9515 17.3112 28.5202 17.7125L30.5105 19.12C30.9227 19.4125 31.0975 19.9225 30.9462 20.3912C30.2439 22.5663 29.0368 24.5607 27.4154 26.2249C27.2457 26.3994 27.0237 26.519 26.7799 26.5671C26.5362 26.6153 26.2829 26.5896 26.055 26.4937H26.0563ZM18.9517 26.2462C19.263 25.3121 19.9254 24.5222 20.8104 24.0299C21.3797 23.7156 22.018 23.5336 22.674 23.4986C23.3301 23.4637 23.9855 23.5767 24.5877 23.8287L26.3407 24.5662C27.4667 23.3167 28.3382 21.876 28.9102 20.3187L27.3593 19.2225V19.2212C26.8313 18.8497 26.4018 18.3645 26.1052 17.8048C25.8087 17.2451 25.6534 16.6265 25.652 15.9987C25.652 14.715 26.3002 13.5237 27.3567 12.7787L27.3593 12.7775L28.9075 11.6812C28.3352 10.1242 27.4632 8.68388 26.3368 7.43498L24.5981 8.16748L24.5955 8.16873C24.0659 8.39373 23.496 8.50873 22.9182 8.50873C21.8906 8.50725 20.8997 8.1428 20.135 7.48509C19.3703 6.82738 18.8854 5.92258 18.7731 4.94374V4.94124L18.5605 3.11624C17.7214 2.96648 16.8705 2.88577 16.017 2.875C15.1379 2.88625 14.2823 2.9675 13.441 3.11624L13.2284 4.94249C13.1553 5.56569 12.9307 6.16376 12.5725 6.68863C12.2144 7.21349 11.7327 7.6505 11.1663 7.96453C10.5999 8.27857 9.96445 8.46086 9.31114 8.49676C8.65784 8.53266 8.00485 8.42116 7.40469 8.17123L5.66213 7.43623C4.53563 8.6851 3.66361 10.1254 3.09133 11.6825L4.64346 12.7787C5.17034 13.1506 5.59865 13.6359 5.89383 14.1955C6.18901 14.7552 6.34281 15.3735 6.34281 16.0006C6.34281 16.6277 6.18901 17.246 5.89383 17.8056C5.59865 18.3653 5.17034 18.8506 4.64346 19.2225L3.09133 20.3199C3.66253 21.8795 4.53412 23.3224 5.66082 24.5737L7.41512 23.8362C8.01339 23.5852 8.66484 23.4726 9.3169 23.5073C9.96897 23.542 10.6034 23.7232 11.1689 24.0362C11.7342 24.3492 12.2151 24.7849 12.5727 25.3083C12.9304 25.8317 13.155 26.4282 13.2284 27.0499V27.0562L13.4397 28.8862C15.1314 29.2049 16.8701 29.2049 18.5618 28.8862L18.7731 27.0524C18.8044 26.7774 18.8644 26.5062 18.9531 26.2462H18.9517Z" fill="black"/>
<path d="M26.0563 26.4937L23.8025 25.5449C23.4817 25.4114 23.1328 25.3515 22.7836 25.3702C22.4343 25.3889 22.0945 25.4855 21.7912 25.6524C21.1821 25.9899 20.7934 26.5862 20.7165 27.2574L20.4452 29.6074C20.4179 29.8436 20.3151 30.0659 20.151 30.244C19.9869 30.4221 19.7694 30.5472 19.5283 30.6024C17.2078 31.1325 14.7898 31.1325 12.4693 30.6024C12.2284 30.547 12.0112 30.4217 11.8474 30.2437C11.6835 30.0656 11.5809 29.8434 11.5537 29.6074L11.2824 27.2612C11.2434 26.931 11.1243 26.6141 10.9345 26.3361C10.7446 26.058 10.4895 25.8264 10.1894 25.6599C9.88962 25.4938 9.55331 25.3975 9.20757 25.3788C8.86183 25.3602 8.51636 25.4196 8.19901 25.5524L5.94516 26.5012C5.71732 26.5971 5.464 26.6228 5.22027 26.5746C4.97653 26.5265 4.75445 26.4069 4.58477 26.2324C2.96255 24.5664 1.7554 22.5698 1.054 20.3924C0.980248 20.1636 0.982557 19.9184 1.06061 19.6909C1.13866 19.4634 1.28859 19.2647 1.48964 19.1225L3.48132 17.7125C3.76171 17.515 3.98969 17.2572 4.14682 16.9597C4.30395 16.6622 4.38582 16.3334 4.38582 16C4.38582 15.6665 4.30395 15.3378 4.14682 15.0403C3.98969 14.7428 3.76171 14.4849 3.48132 14.2875L1.48964 12.8812C1.28833 12.7389 1.13823 12.54 1.06017 12.3122C0.982107 12.0844 0.979951 11.839 1.054 11.61C1.75685 9.43457 2.96488 7.44006 4.58738 5.77624C4.75721 5.60199 4.97937 5.48265 5.22309 5.43472C5.46682 5.3868 5.72006 5.41266 5.94777 5.50874L8.19119 6.45499C8.51039 6.58665 8.85733 6.64487 9.20423 6.625C9.55113 6.60513 9.88835 6.50771 10.1889 6.34054C10.4895 6.17337 10.7451 5.94109 10.9352 5.66229C11.1253 5.3835 11.2446 5.06592 11.2837 4.73499L11.5576 2.3875C11.5852 2.14869 11.6899 1.92409 11.8571 1.74504C12.0242 1.56599 12.2456 1.44144 12.4902 1.38875C13.6393 1.14375 14.8119 1.01375 16.017 1C17.1935 1.0125 18.3648 1.14375 19.5126 1.38875C19.7575 1.44134 19.9791 1.56603 20.1463 1.74535C20.3135 1.92468 20.418 2.14965 20.4452 2.38875L20.7178 4.73624C20.7766 5.25684 21.0337 5.73834 21.44 6.08848C21.8463 6.43862 22.3731 6.63277 22.9195 6.63374C23.2234 6.63374 23.5247 6.57249 23.8064 6.45374L26.0498 5.50749C26.2775 5.41141 26.5308 5.38555 26.7745 5.43347C27.0182 5.4814 27.2404 5.60074 27.4102 5.77499C29.0323 7.43888 30.2399 9.4334 30.9423 11.6087C31.0162 11.8374 31.0141 12.0825 30.9362 12.31C30.8584 12.5376 30.7088 12.7363 30.5079 12.8787L28.5189 14.2875C27.9515 14.6875 27.6085 15.3237 27.6085 16C27.6085 16.675 27.9515 17.3112 28.5202 17.7125L30.5105 19.12C30.9227 19.4125 31.0975 19.9225 30.9462 20.3912C30.2439 22.5663 29.0368 24.5607 27.4154 26.2249C27.2457 26.3994 27.0237 26.519 26.7799 26.5671C26.5362 26.6153 26.2829 26.5896 26.055 26.4937H26.0563ZM18.9517 26.2462C19.263 25.3121 19.9254 24.5222 20.8104 24.0299C21.3797 23.7156 22.018 23.5336 22.674 23.4986C23.3301 23.4637 23.9855 23.5767 24.5877 23.8287L26.3407 24.5662C27.4667 23.3167 28.3382 21.876 28.9102 20.3187L27.3593 19.2225V19.2212C26.8313 18.8497 26.4018 18.3645 26.1052 17.8048C25.8087 17.2451 25.6534 16.6265 25.652 15.9987C25.652 14.715 26.3002 13.5237 27.3567 12.7787L27.3593 12.7775L28.9075 11.6812C28.3352 10.1242 27.4632 8.68388 26.3368 7.43498L24.5981 8.16748L24.5955 8.16873C24.0659 8.39373 23.496 8.50873 22.9182 8.50873C21.8906 8.50725 20.8997 8.1428 20.135 7.48509C19.3703 6.82738 18.8854 5.92258 18.7731 4.94374V4.94124L18.5605 3.11624C17.7214 2.96648 16.8705 2.88577 16.017 2.875C15.1379 2.88625 14.2823 2.9675 13.441 3.11624L13.2284 4.94249C13.1553 5.56569 12.9307 6.16376 12.5725 6.68863C12.2144 7.21349 11.7327 7.6505 11.1663 7.96453C10.5999 8.27857 9.96445 8.46086 9.31114 8.49676C8.65784 8.53266 8.00485 8.42116 7.40469 8.17123L5.66213 7.43623C4.53563 8.6851 3.66361 10.1254 3.09133 11.6825L4.64346 12.7787C5.17034 13.1506 5.59865 13.6359 5.89383 14.1955C6.18901 14.7552 6.34281 15.3735 6.34281 16.0006C6.34281 16.6277 6.18901 17.246 5.89383 17.8056C5.59865 18.3653 5.17034 18.8506 4.64346 19.2225L3.09133 20.3199C3.66253 21.8795 4.53412 23.3224 5.66082 24.5737L7.41512 23.8362C8.01339 23.5852 8.66484 23.4726 9.3169 23.5073C9.96897 23.542 10.6034 23.7232 11.1689 24.0362C11.7342 24.3492 12.2151 24.7849 12.5727 25.3083C12.9304 25.8317 13.155 26.4282 13.2284 27.0499V27.0562L13.4397 28.8862C15.1314 29.2049 16.8701 29.2049 18.5618 28.8862L18.7731 27.0524C18.8044 26.7774 18.8644 26.5062 18.9531 26.2462H18.9517Z" stroke="black" stroke-width="0.6" mask="url(#path-2-outside-1)"/>
</svg>
