<svg width="82" height="73" viewBox="0 0 82 73" fill="none" xmlns="http://www.w3.org/2000/svg">
<path fill-rule="evenodd" clip-rule="evenodd" d="M21.9524 3.04761C23.2153 3.04761 24.4265 3.54931 25.3196 4.44234C26.2126 5.33537 26.7143 6.54658 26.7143 7.80951V17.3333C26.7143 18.5963 26.2126 19.8075 25.3196 20.7005C24.4265 21.5935 23.2153 22.0952 21.9524 22.0952C20.6895 22.0952 19.4783 21.5935 18.5852 20.7005C17.6922 19.8075 17.1905 18.5963 17.1905 17.3333V7.80951C17.1905 6.54658 17.6922 5.33537 18.5852 4.44234C19.4783 3.54931 20.6895 3.04761 21.9524 3.04761V3.04761Z" stroke="black" stroke-width="5" stroke-linecap="round" stroke-linejoin="round"/>
<path d="M79.0952 12.5715H26.7143" stroke="black" stroke-width="5" stroke-linecap="round" stroke-linejoin="round"/>
<path d="M17.1905 12.5715H2.90479" stroke="black" stroke-width="5" stroke-linecap="round" stroke-linejoin="round"/>
<path fill-rule="evenodd" clip-rule="evenodd" d="M21.9524 50.6667C23.2153 50.6667 24.4265 51.1684 25.3196 52.0615C26.2126 52.9545 26.7143 54.1657 26.7143 55.4287V64.9525C26.7143 66.2154 26.2126 67.4266 25.3196 68.3196C24.4265 69.2127 23.2153 69.7144 21.9524 69.7144C20.6895 69.7144 19.4783 69.2127 18.5852 68.3196C17.6922 67.4266 17.1905 66.2154 17.1905 64.9525V55.4287C17.1905 54.1657 17.6922 52.9545 18.5852 52.0615C19.4783 51.1684 20.6895 50.6667 21.9524 50.6667Z" stroke="black" stroke-width="5" stroke-linecap="round" stroke-linejoin="round"/>
<path d="M79.0952 60.1904H26.7143" stroke="black" stroke-width="5" stroke-linecap="round" stroke-linejoin="round"/>
<path d="M17.1905 60.1904H2.90479" stroke="black" stroke-width="5" stroke-linecap="round" stroke-linejoin="round"/>
<path fill-rule="evenodd" clip-rule="evenodd" d="M60.0477 26.8572C61.3106 26.8572 62.5218 27.3589 63.4148 28.2519C64.3079 29.1449 64.8096 30.3561 64.8096 31.6191V41.1429C64.8096 42.4058 64.3079 43.617 63.4148 44.5101C62.5218 45.4031 61.3106 45.9048 60.0477 45.9048C58.7847 45.9048 57.5735 45.4031 56.6805 44.5101C55.7875 43.617 55.2858 42.4058 55.2858 41.1429V31.6191C55.2858 30.3561 55.7875 29.1449 56.6805 28.2519C57.5735 27.3589 58.7847 26.8572 60.0477 26.8572V26.8572Z" stroke="black" stroke-width="5" stroke-linecap="round" stroke-linejoin="round"/>
<path d="M55.2857 36.3809H2.90479" stroke="black" stroke-width="5" stroke-linecap="round" stroke-linejoin="round"/>
<path d="M79.0953 36.3809H64.8096" stroke="black" stroke-width="5" stroke-linecap="round" stroke-linejoin="round"/>
</svg>
