<svg width="101" height="101" viewBox="0 0 101 101" fill="none" xmlns="http://www.w3.org/2000/svg">
<path d="M50.507 0C36.0783 0 24.2836 11.7947 24.2836 26.2234C24.2836 40.6521 36.0783 52.4468 50.507 52.4468C64.9356 52.4468 76.7304 40.6521 76.7304 26.2234C76.7304 11.7947 64.9356 0 50.507 0Z" fill="black"/>
<path d="M95.5105 73.4024C94.8234 71.6846 93.9074 70.0815 92.8768 68.5928C87.6092 60.8059 79.479 55.6528 70.3179 54.3932C69.1729 54.2788 67.9133 54.5076 66.9971 55.1947C62.1875 58.7447 56.462 60.5768 50.5072 60.5768C44.5524 60.5768 38.8269 58.7447 34.0173 55.1947C33.1012 54.5076 31.8415 54.1641 30.6965 54.3932C21.5355 55.6528 13.2906 60.8059 8.13763 68.5928C7.10703 70.0815 6.19084 71.7993 5.50392 73.4024C5.16046 74.0895 5.27487 74.8911 5.61833 75.5782C6.53452 77.1813 7.67954 78.7846 8.71014 80.1587C10.3133 82.3345 12.031 84.2811 13.9778 86.1133C15.5809 87.7164 17.4131 89.2051 19.2454 90.6938C28.2918 97.4501 39.1706 101 50.3928 101C61.615 101 72.4938 97.4499 81.5402 90.6938C83.3723 89.3197 85.2045 87.7164 86.8078 86.1133C88.64 84.2811 90.4721 82.3343 92.0755 80.1587C93.2205 78.67 94.2513 77.1813 95.1673 75.5782C95.7396 74.8911 95.854 74.0893 95.5105 73.4024Z" fill="black"/>
</svg>
