<svg width="30" height="31" viewBox="0 0 30 31" fill="none" xmlns="http://www.w3.org/2000/svg">
<path fill-rule="evenodd" clip-rule="evenodd" d="M20 12.2202C20 13.5463 19.4732 14.8181 18.5355 15.7557C17.5979 16.6934 16.3261 17.2202 15 17.2202C13.6739 17.2202 12.4021 16.6934 11.4645 15.7557C10.5268 14.8181 10 13.5463 10 12.2202C10 10.8941 10.5268 9.62235 11.4645 8.68467C12.4021 7.74699 13.6739 7.22021 15 7.22021C16.3261 7.22021 17.5979 7.74699 18.5355 8.68467C19.4732 9.62235 20 10.8941 20 12.2202V12.2202ZM17.5 12.2202C17.5 12.8832 17.2366 13.5191 16.7678 13.988C16.2989 14.4568 15.663 14.7202 15 14.7202C14.337 14.7202 13.7011 14.4568 13.2322 13.988C12.7634 13.5191 12.5 12.8832 12.5 12.2202C12.5 11.5572 12.7634 10.9213 13.2322 10.4524C13.7011 9.9836 14.337 9.72021 15 9.72021C15.663 9.72021 16.2989 9.9836 16.7678 10.4524C17.2366 10.9213 17.5 11.5572 17.5 12.2202V12.2202Z" fill="black"/>
<path fill-rule="evenodd" clip-rule="evenodd" d="M15 2.22022C7.40625 2.22022 1.25 8.37647 1.25 15.9702C1.25 23.564 7.40625 29.7202 15 29.7202C22.5937 29.7202 28.75 23.564 28.75 15.9702C28.75 8.37647 22.5937 2.22022 15 2.22022ZM3.75 15.9702C3.75 18.5827 4.64125 20.9877 6.135 22.8977C7.18404 21.5201 8.53738 20.4037 10.0893 19.6356C11.6412 18.8676 13.3497 18.4687 15.0812 18.4702C16.7904 18.4686 18.4774 18.8571 20.0137 19.6062C21.5499 20.3553 22.895 21.4451 23.9462 22.7927C25.0293 21.3722 25.7585 19.7142 26.0736 17.956C26.3887 16.1977 26.2805 14.3896 25.7581 12.6815C25.2357 10.9733 24.314 9.41403 23.0694 8.13277C21.8247 6.85151 20.2928 5.88505 18.6005 5.31336C16.9081 4.74167 15.104 4.58119 13.3373 4.84519C11.5707 5.10919 9.89224 5.79009 8.44096 6.83154C6.98968 7.87299 5.80726 9.24506 4.99154 10.8342C4.17581 12.4234 3.75023 14.1839 3.75 15.9702V15.9702ZM15 27.2202C12.4174 27.2241 9.91283 26.3357 7.91 24.7052C8.71616 23.5511 9.78917 22.6089 11.0377 21.9586C12.2863 21.3083 13.6735 20.9692 15.0812 20.9702C16.4715 20.9691 17.8419 21.2997 19.0787 21.9345C20.3155 22.5693 21.383 23.49 22.1925 24.6202C20.1741 26.3036 17.6282 27.2239 15 27.2202V27.2202Z" fill="black"/>
</svg>
