<svg width="100" height="100" viewBox="0 0 100 100" fill="none" xmlns="http://www.w3.org/2000/svg">
<path fill-rule="evenodd" clip-rule="evenodd" d="M50 4.16675C24.6875 4.16675 4.16666 24.6876 4.16666 50.0001C4.16666 75.3126 24.6875 95.8334 50 95.8334C75.3125 95.8334 95.8333 75.3126 95.8333 50.0001C95.8333 24.6876 75.3125 4.16675 50 4.16675ZM65.4458 40.4459C66.2048 39.6601 66.6248 38.6076 66.6153 37.5151C66.6058 36.4226 66.1676 35.3775 65.3951 34.605C64.6225 33.8325 63.5775 33.3943 62.485 33.3848C61.3925 33.3753 60.34 33.7953 59.5542 34.5542L50 44.1084L40.4458 34.5542C40.0615 34.1563 39.6017 33.8389 39.0933 33.6205C38.585 33.4021 38.0382 33.2872 37.485 33.2824C36.9317 33.2776 36.3831 33.383 35.871 33.5925C35.3589 33.802 34.8937 34.1114 34.5025 34.5026C34.1113 34.8938 33.8019 35.359 33.5924 35.8711C33.3829 36.3832 33.2775 36.9318 33.2823 37.4851C33.2871 38.0383 33.402 38.5851 33.6204 39.0934C33.8388 39.6018 34.1562 40.0616 34.5542 40.4459L44.1083 50.0001L34.5542 59.5542C34.1562 59.9386 33.8388 60.3984 33.6204 60.9067C33.402 61.4151 33.2871 61.9618 33.2823 62.5151C33.2775 63.0683 33.3829 63.617 33.5924 64.1291C33.8019 64.6411 34.1113 65.1063 34.5025 65.4976C34.8937 65.8888 35.3589 66.1982 35.871 66.4077C36.3831 66.6172 36.9317 66.7226 37.485 66.7178C38.0382 66.713 38.585 66.598 39.0933 66.3797C39.6017 66.1613 40.0615 65.8439 40.4458 65.4459L50 55.8917L59.5542 65.4459C60.34 66.2049 61.3925 66.6249 62.485 66.6154C63.5775 66.6059 64.6225 66.1677 65.3951 65.3952C66.1676 64.6226 66.6058 63.5776 66.6153 62.4851C66.6248 61.3926 66.2048 60.3401 65.4458 59.5542L55.8917 50.0001L65.4458 40.4459Z" fill="#F24E1E"/>
</svg>
